<svg xmlns="http://www.w3.org/2000/svg" viewBox="0 0 406 262.92">
    <defs>
        <style>.cls-1{fill:#fff;}.cls-2{fill:#ff0053;}.cls-3{fill:#0a3aff;}.cls-4{fill:#0b0b14;}</style>
    </defs>
    <title>404-not-found</title>
    <g id="Layer_4" data-name="Layer 4">
        <rect class="cls-1" y="193.06" width="406" height="69.86"/>
    </g>
    <g id="Layer_1" data-name="Layer 1">
        <path class="cls-2"
              d="M254.14,44.1h3.33V158.85h19.91v15.66H257.47v38.25H241.14V174.51H162.4Zm-13,114.75V89.75l-48.74,69.1Z"
              transform="translate(-144 -44.1)"/>
        <path class="cls-1"
              d="M290.8,130.55q0-32.55,7-50.33t19.74-26.95a47.72,47.72,0,0,1,28.52-9.17,48.83,48.83,0,0,1,29,9.22Q388,62.56,395.54,81t7.55,49.54q0,31-7.44,49.32t-20.52,27.69a49,49,0,0,1-29.08,9.34,47.61,47.61,0,0,1-28.41-9.06q-12.64-9.06-19.74-27T290.8,130.55Zm15.54.28q0,27.87,5,42.14T326,194.63q9.74,7.4,20.58,7.39a33.22,33.22,0,0,0,20.47-7.22q9.5-7.22,14.42-21.66,6.15-17.56,6.15-42.31t-5.48-40.68Q376.69,74.31,367,67t-20.41-7.34q-11,0-20.58,7.34t-14.65,21.6Q306.34,102.85,306.34,130.83Z"
              transform="translate(-144 -44.1)"/>
        <path class="cls-3"
              d="M508,44.1h3.33V158.85h19.91v15.66H511.35v38.25H495V174.51H416.29ZM495,158.85V89.75l-48.74,69.1Z"
              transform="translate(-144 -44.1)"/>
        <path class="cls-4" d="M157.54,245.86h9l21.11,32.48V245.86h9.4v49.36h-9l-21.09-32.38v32.38h-9.4Z"
              transform="translate(-144 -44.1)"/>
        <path class="cls-4"
              d="M231.64,244.62a24.54,24.54,0,0,1,18,7.58,25.27,25.27,0,0,1,7.54,18.49A25,25,0,0,1,249.76,289a25.76,25.76,0,0,1-36.51-.21,25.92,25.92,0,0,1,18.39-44.15Zm-.1,9.19A15.51,15.51,0,0,0,220,258.58a16.58,16.58,0,0,0-4.67,12.11q0,8.19,5.88,12.95a16.15,16.15,0,0,0,10.48,3.73,15.29,15.29,0,0,0,11.39-4.84,17.41,17.41,0,0,0,0-23.84A15.44,15.44,0,0,0,231.54,253.81Z"
              transform="translate(-144 -44.1)"/>
        <path class="cls-4" d="M261.19,245.86h27.28v9.26h-9v40.1h-9.53v-40.1h-8.75Z" transform="translate(-144 -44.1)"/>
        <path class="cls-4" d="M314.27,245.86h24.49V255H323.6v9h15.16v9H323.6v22.21h-9.33Z"
              transform="translate(-144 -44.1)"/>
        <path class="cls-4"
              d="M370.42,244.62a24.52,24.52,0,0,1,18,7.58A25.23,25.23,0,0,1,396,270.69,25,25,0,0,1,388.53,289a25.76,25.76,0,0,1-36.51-.21,25.93,25.93,0,0,1,18.4-44.15Zm-.1,9.19a15.48,15.48,0,0,0-11.52,4.77,16.58,16.58,0,0,0-4.67,12.11q0,8.19,5.88,12.95a16.11,16.11,0,0,0,10.48,3.73,15.26,15.26,0,0,0,11.38-4.84,17.4,17.4,0,0,0,0-23.84A15.47,15.47,0,0,0,370.32,253.81Z"
              transform="translate(-144 -44.1)"/>
        <path class="cls-4"
              d="M404.49,245.86h9.43v31.92a16.55,16.55,0,0,0,.72,5.83,5.82,5.82,0,0,0,2.38,2.73,7.54,7.54,0,0,0,4,1,7.79,7.79,0,0,0,4.28-1.14,6,6,0,0,0,2.48-2.9q.69-1.77.69-6.73V245.86h9.43v29.43c0,5-.28,8.41-.84,10.33a14.57,14.57,0,0,1-3.2,5.57,15,15,0,0,1-5.45,4,18.57,18.57,0,0,1-7.19,1.29,17.32,17.32,0,0,1-9.34-2.47,14.33,14.33,0,0,1-5.69-6.17q-1.71-3.7-1.71-12.53Z"
              transform="translate(-144 -44.1)"/>
        <path class="cls-4" d="M448.85,245.86h9L479,278.34V245.86h9.4v49.36h-9l-21.1-32.38v32.38h-9.39Z"
              transform="translate(-144 -44.1)"/>
        <path class="cls-4"
              d="M499.68,245.86h11.13q10.77,0,16,2.67a20.86,20.86,0,0,1,8.62,8.67,30.46,30.46,0,0,1,1.49,24.51,21.75,21.75,0,0,1-5.23,7.94,18.53,18.53,0,0,1-7.22,4.36q-3.9,1.2-13.48,1.21h-11.3Zm9.33,9.06v31.14h4.36c4.3,0,7.41-.5,9.35-1.48a11.22,11.22,0,0,0,4.74-5,18.26,18.26,0,0,0,1.85-8.6q0-7.86-4.4-12.19-4-3.9-12.71-3.9Z"
              transform="translate(-144 -44.1)"/>
    </g>
</svg>